<svg width="18" height="15" viewBox="0 0 18 15" fill="none" xmlns="http://www.w3.org/2000/svg">
<g clip-path="url(#clip0_110_380)">
<path d="M4.22678 5.59861H8.3006L8.3006 7.11795C8.3006 8.22127 9.02639 9.22732 10.0306 9.33777C11.1855 9.46472 12.16 8.47586 12.16 7.23924V3.7031L12.8169 4.13465C14.004 4.916 14.7319 6.31931 14.7319 7.83689L16.876 9.19334C17.2847 9.44971 17.4289 10.0248 17.1909 10.4716L15.0468 14.5321C14.8089 14.9789 14.283 15.1327 13.8742 14.8763L11.103 13.1259H7.44188C6.49713 13.1259 5.72659 12.2836 5.72659 11.2509C5.01608 11.2509 4.44012 10.6213 4.44012 9.84461V8.43748H4.22571C3.87059 8.43748 3.58247 8.12254 3.58247 7.73435L3.58247 6.3281C3.58355 5.93846 3.87032 5.59861 4.22678 5.59861ZM0.268204 4.52635L2.41098 0.4658C2.64884 0.0190222 3.17482 -0.134786 3.58355 0.121561L6.35482 1.87205H8.03179C9.04622 1.87205 10.04 2.18289 10.9022 2.76941C11.1496 2.94139 11.3024 3.24021 11.3024 3.56248L11.3024 7.2656C11.3024 7.91394 10.8232 8.43748 10.2303 8.43748C9.6372 8.43748 9.15826 7.91365 9.15826 7.2656V4.66111H4.22679C3.39782 4.66111 2.72591 5.39559 2.72591 6.30174V7.1367L0.581793 5.78172C0.171721 5.54881 0.0323505 4.97459 0.268204 4.52635Z" fill="#5352ED"/>
</g>
<defs>
<clipPath id="clip0_110_380">
<rect width="17.1529" height="15" fill="white" transform="matrix(-1 0 0 1 17.3059 0)"/>
</clipPath>
</defs>
</svg>
