<svg width="15" height="15" viewBox="0 0 15 15" fill="none" xmlns="http://www.w3.org/2000/svg">
<path d="M14.9948 7.48535C14.9948 8.0127 14.6042 8.42578 14.1615 8.42578H13.3281L13.3464 13.1162C13.3464 13.1982 13.3411 13.2744 13.3333 13.3535V13.8281C13.3333 14.4756 12.8672 15 12.2917 15H11.875C11.8464 15 11.8177 14.9736 11.7891 14.9971C11.7526 14.9736 11.7161 15 11.6797 15H10.2083C9.63281 15 9.16667 14.4756 9.16667 13.8281V11.25C9.16667 10.7314 8.79427 10.3125 8.33333 10.3125H6.66667C6.20573 10.3125 5.83333 10.7314 5.83333 11.25V13.8281C5.83333 14.4756 5.36719 15 4.79167 15H3.33594C3.29688 15 3.25781 14.9971 3.21875 14.9941C3.1875 14.9971 3.15625 15 3.125 15H2.70833C2.13307 15 1.66667 14.4756 1.66667 13.8281V10.5469C1.66667 10.5205 1.66745 10.4912 1.66901 10.4648V8.42578H0.834635C0.365104 8.42578 0 8.0127 0 7.48535C0 7.22168 0.0782292 6.9873 0.260677 6.78223L6.9375 0.234844C7.11979 0.0293555 7.32812 0 7.51042 0C7.69271 0 7.90104 0.0587109 8.0599 0.205488L14.7083 6.78223C14.9167 6.9873 15.0234 7.22168 14.9948 7.48535Z" fill="#5352ED"/>
</svg>
