<svg width="15" height="15" viewBox="0 0 15 15" fill="none" xmlns="http://www.w3.org/2000/svg">
<path d="M4.6875 12.1875H2.8125C2.29482 12.1875 1.875 11.7677 1.875 11.25V3.75C1.875 3.23232 2.29482 2.8125 2.8125 2.8125H4.6875C5.20518 2.8125 5.625 2.39268 5.625 1.875C5.625 1.35732 5.20605 0.9375 4.6875 0.9375H2.8125C1.25918 0.9375 0 2.19668 0 3.75V11.25C0 12.8033 1.25918 14.0625 2.8125 14.0625H4.6875C5.20518 14.0625 5.625 13.6427 5.625 13.125C5.625 12.6073 5.20605 12.1875 4.6875 12.1875ZM14.7246 6.83789L10.9746 3.08789C10.6081 2.72139 10.0148 2.72197 9.64893 3.08789C9.28271 3.4541 9.28271 4.04736 9.64893 4.41357L11.8008 6.5625H5.625C5.10645 6.5625 4.6875 6.98145 4.6875 7.5C4.6875 8.01855 5.10674 8.4375 5.625 8.4375H11.8008L9.65098 10.5873C9.28477 10.9535 9.28477 11.5468 9.65098 11.913C10.0172 12.2792 10.6104 12.2792 10.9767 11.913L14.7267 8.16299C15.0908 7.7959 15.0908 7.2041 14.7246 6.83789Z" fill="#5352ED"/>
</svg>
